<?xml version="1.0" encoding="UTF-8"?>
<svg id="Livello_vettoriale_copy_3" data-name="Livello vettoriale copy 3" xmlns="http://www.w3.org/2000/svg" width="190mm" height="190mm" viewBox="0 0 538.58 538.58">
  <defs>
    <style>
      .cls-1 {
        fill: #fcfcfc;
      }

      .cls-2 {
        fill: #1e5636;
      }
    </style>
  </defs>
  <rect class="cls-1" x="-618.67" width="2370.58" height="538.58"/>
  <g>
    <path class="cls-2" d="m434.67,145.57c-23.04,0-42.72,8.64-54.24,24.72-9.36-15.84-26.88-24.29-50.16-24.72-18.5-.34-48.94-1.81-70.42,22.78-28.07,32.13-1.7,64.44-1.7,107.56,0,29.48-10,43.7-10,43.7h40.17s10-14.22,10-43.7c0-43.11-18.1-65.78-12.36-79.66,5.14-12.44,17.62-17.55,31.83-17.55,19.2,0,32.16,11.28,32.16,35.76v102h38.88v-99.61c0-26.64,15.12-38.16,36.24-38.16,19.2,0,33.6,11.28,33.6,35.76v102h38.88v-103.2c0-44.4-23.76-67.68-62.88-67.68ZM41.03,316.45v-168h76.32c54.96,0,92.64,33.12,92.64,84s-37.68,84-92.64,84H41.03Zm38.88-31.92h35.52c33.36,0,55.2-19.92,55.2-52.08s-21.84-52.08-55.2-52.08h-35.52v104.16Z"/>
    <polygon class="cls-2" points="49.45 401.15 41.03 401.15 74.22 342.98 84.66 342.98 117.74 401.15 110.11 401.15 79.83 347.79 49.45 401.15"/>
    <path class="cls-2" d="m245.96,342.98v29.09c0,3.43-.04,6.57-.13,9.39-.09,2.83-.38,5.37-.87,7.61-.49,2.25-1.27,4.2-2.33,5.87s-2.58,3.05-4.54,4.15c-1.97,1.1-4.48,1.92-7.52,2.46-3.04.54-6.79.81-11.23.81h-17.04c-4.44,0-8.19-.27-11.23-.81-3.04-.54-5.55-1.36-7.52-2.46-1.97-1.1-3.49-2.48-4.56-4.15s-1.86-3.62-2.35-5.87c-.49-2.25-.78-4.78-.85-7.61-.08-2.83-.11-5.96-.11-9.39v-29.09h7.27v29.09c0,3.64.03,6.76.09,9.37.06,2.61.27,4.82.62,6.61.35,1.79.91,3.23,1.69,4.32.77,1.09,1.87,1.92,3.31,2.5,1.44.58,3.26.97,5.47,1.15,2.21.19,4.93.28,8.16.28h17.04c3.21,0,5.92-.09,8.14-.28,2.22-.19,4.05-.57,5.47-1.15,1.43-.58,2.53-1.41,3.31-2.5.78-1.09,1.36-2.52,1.72-4.32.37-1.79.57-4,.63-6.61.05-2.61.08-5.74.08-9.37l-.04-29.09h7.31Z"/>
    <polygon class="cls-2" points="372.24 342.98 372.24 349.04 343.15 349.04 343.15 401.15 335.88 401.15 335.88 349.04 306.79 349.04 306.79 342.98 372.24 342.98"/>
    <path class="cls-2" d="m497.22,362.67c-.09-2.83-.38-5.37-.87-7.61-.49-2.25-1.27-4.2-2.33-5.87-1.06-1.67-2.58-3.05-4.54-4.15-1.97-1.1-4.48-1.92-7.52-2.46-3.04-.54-6.79-.81-11.23-.81h-21.89c-4.44,0-8.19.27-11.23.81-3.04.54-5.55,1.36-7.52,2.46-1.97,1.1-3.49,2.48-4.56,4.15-1.07,1.67-1.86,3.62-2.35,5.87-.49,2.25-.78,4.78-.85,7.61-.08,2.83-.11,5.96-.11,9.39s.04,6.57.11,9.39c.08,2.83.36,5.37.85,7.61.49,2.25,1.27,4.2,2.35,5.87,1.07,1.67,2.59,3.05,4.56,4.15,1.97,1.1,4.47,1.92,7.52,2.46,3.04.54,6.79.81,11.23.81h21.89c4.44,0,8.19-.27,11.23-.81,3.04-.54,5.55-1.36,7.52-2.46,1.97-1.1,3.48-2.48,4.54-4.15,1.06-1.67,1.84-3.62,2.33-5.87.49-2.25.78-4.78.87-7.61.09-2.83.13-5.96.13-9.39s-.04-6.56-.13-9.39Zm-7.23,18.77c-.06,2.61-.27,4.82-.63,6.61-.35,1.79-.92,3.23-1.7,4.32-.78,1.09-1.89,1.92-3.33,2.5-1.44.58-3.26.97-5.47,1.15-2.21.19-4.92.28-8.12.28h-21.89c-3.23,0-5.95-.09-8.16-.28-2.21-.19-4.03-.57-5.47-1.15-1.44-.58-2.54-1.41-3.31-2.5-.77-1.09-1.33-2.52-1.69-4.32-.35-1.79-.56-4-.63-6.61-.06-2.61-.09-5.74-.09-9.37s.03-6.76.08-9.37c.05-2.61.25-4.82.61-6.61.35-1.79.92-3.23,1.7-4.32.78-1.09,1.89-1.92,3.33-2.5,1.44-.58,3.26-.97,5.47-1.15,2.21-.19,4.93-.28,8.16-.28h21.89c3.23,0,5.95.09,8.16.28,2.21.19,4.03.57,5.45,1.15,1.43.58,2.53,1.41,3.31,2.5.78,1.09,1.35,2.53,1.7,4.32.35,1.79.56,4,.63,6.61.06,2.61.09,5.74.09,9.37s-.03,6.76-.09,9.37Z"/>
  </g>
</svg>