<?xml version="1.0" encoding="utf-8"?>
<!-- Generator: Adobe Illustrator 28.1.0, SVG Export Plug-In . SVG Version: 6.00 Build 0)  -->
<svg version="1.1" xmlns="http://www.w3.org/2000/svg" xmlns:xlink="http://www.w3.org/1999/xlink" x="0px" y="0px"
	 viewBox="0 0 103.5 103.5" style="enable-background:new 0 0 103.5 103.5;" xml:space="preserve">
<style type="text/css">
	.st0{fill:#FFFFFF;}
	.st1{fill:#216BFF;}
	.st2{enable-background:new    ;}
</style>
<g id="Layer_2">
	<rect y="0" class="st0" width="103.5" height="103.5"/>
</g>
<g id="Layer_1">
	<g>
		<path class="st1" d="M83.8,21.6c1.4,4.3-0.9,8.9-5.2,10.4s-8.9-0.9-10.4-5.2c-1.4-4.3,0.9-8.9,5.2-10.4c0,0,0,0,0,0
			C77.8,14.9,82.4,17.3,83.8,21.6"/>
		<path class="st1" d="M88.3,40.2c-0.9-2.9-2.2-5.6-3.8-8.2c-4.3,4.7-11.6,4.9-16.2,0.6c-4.5-4.1-4.9-11-1.1-15.7
			c-19.6-8.7-42.4,0.2-51.1,19.7S16.2,79,35.8,87.7S78.2,87.5,86.9,68C90.8,59.2,91.3,49.3,88.3,40.2 M78.8,67.1
			c-1.3,11.2-11.5,19.2-22.7,17.8C44.9,83.6,37,73.5,38.3,62.3c1.3-11.2,11.4-19.1,22.6-17.8C72.1,45.8,80.1,55.9,78.8,67.1"/>
	</g>
	<g>
		<g class="st2">
			<path class="st1" d="M92.6,30l-2.9,1.6l0.4,0.8l-0.8,0.5l-1.4-2.6l0.8-0.5l0.4,0.8L92,29l-0.4-0.8l0.8-0.5l1.4,2.6l-0.8,0.5
				L92.6,30z"/>
		</g>
		<g class="st2">
			<path class="st1" d="M92,32.5c1.4-0.6,2.9,0.1,3.6,1.6c0.6,1.5,0,3.1-1.4,3.6c-1.4,0.6-2.9-0.1-3.6-1.6
				C90,34.6,90.6,33.1,92,32.5z M93.7,36.6c0.9-0.4,1.3-1.3,0.9-2.1c-0.4-0.9-1.2-1.2-2.2-0.9c-0.9,0.4-1.3,1.3-0.9,2.1
				C91.9,36.6,92.8,37,93.7,36.6z"/>
		</g>
		<g class="st2">
			<path class="st1" d="M96.5,41.6c0.1-0.5,0.2-1,0.1-1.5l-4.1,1.1l-0.3-1.2l4.1-1.1c-0.2-0.5-0.5-0.9-0.9-1.3l0.8-0.6
				c0.6,0.6,1,1.4,1.3,2.2c0.2,0.8,0.2,1.7,0,2.5L96.5,41.6z"/>
		</g>
		<g class="st2">
			<path class="st1" d="M97.6,44.8l-3.2,0.6l0.2,0.9l-0.9,0.2l-0.5-3l0.9-0.2l0.2,0.9l3.2-0.6l-0.2-0.9l0.9-0.2l0.5,3l-0.9,0.2
				L97.6,44.8z"/>
		</g>
		<g class="st2">
			<path class="st1" d="M97,51.8L94,52l-0.1-1.2l3-0.2c0.8-0.1,1.2-0.5,1.2-1.2c0-0.7-0.5-1.2-1.4-1.1l-2.9,0.2l-0.1-1.2l5.2-0.3
				l0.1,1.2l-0.6,0c0.5,0.3,0.8,0.9,0.8,1.5C99.2,50.9,98.5,51.7,97,51.8z"/>
		</g>
		<g class="st2">
			<path class="st1" d="M96.5,56.4l-0.1,1.1l-2.7-0.2l0.1-0.9l0.3,0c-0.3-0.4-0.3-0.9-0.3-1.4c0.1-1.4,1.1-2.6,2.8-2.5
				c1.6,0.1,2.7,1.4,2.6,3c-0.1,0.9-0.4,1.6-1,2.1l-0.7-0.8c0.4-0.4,0.6-0.8,0.7-1.3c0.1-1-0.6-1.7-1.6-1.8
				c-1.1-0.1-1.7,0.6-1.7,1.5c0,0.4,0.1,0.8,0.3,1.1L96.5,56.4z"/>
		</g>
		<g class="st2">
			<path class="st1" d="M95.5,63.2l-2.8-0.5l0.2-1.2l1.2,0.2l0.5-2.3l-1.2-0.2l0.2-1.2l2.8,0.5c1.5,0.3,2.2,1.4,1.9,2.8
				C98.1,62.7,97,63.5,95.5,63.2z M95.1,61.9l0.7,0.1c0.9,0.2,1.4-0.2,1.5-0.9c0.1-0.7-0.2-1.2-1.1-1.4l-0.7-0.1L95.1,61.9z"/>
		</g>
		<g class="st2">
			<path class="st1" d="M93.8,66.1c0.5,0.2,0.7,0.7,0.6,1.2c-0.2,0.5-0.7,0.7-1.2,0.6c-0.5-0.2-0.7-0.7-0.6-1.2
				C92.8,66.2,93.3,65.9,93.8,66.1z"/>
		</g>
		<g class="st2">
			<path class="st1" d="M93.2,73.3l-2.9-1.4l-0.4,0.8L89,72.2l1.3-2.7l0.9,0.4l-0.4,0.8l2.9,1.4l0.4-0.8l0.9,0.4l-1.3,2.7l-0.9-0.4
				L93.2,73.3z"/>
		</g>
		<g class="st2">
			<path class="st1" d="M91,74.2c1.3,0.8,1.6,2.5,0.7,3.8c-0.9,1.4-2.5,1.8-3.8,0.9c-1.3-0.8-1.6-2.5-0.7-3.8
				C88.1,73.7,89.7,73.4,91,74.2z M88.6,77.9c0.8,0.5,1.8,0.3,2.3-0.5c0.5-0.8,0.3-1.7-0.5-2.3s-1.8-0.3-2.3,0.5
				C87.6,76.4,87.7,77.4,88.6,77.9z"/>
		</g>
		<g class="st2">
			<path class="st1" d="M86,82.9c0.5-0.2,0.9-0.4,1.3-0.8L84,79.5l0.8-0.9l3.3,2.7c0.3-0.4,0.4-0.9,0.5-1.4l0.9,0.2
				c-0.1,0.8-0.5,1.6-1,2.3c-0.6,0.7-1.3,1.2-2,1.5L86,82.9z"/>
		</g>
		<g class="st2">
			<path class="st1" d="M84,85.7l-2.3-2.3L81,84l-0.7-0.7l2.1-2.1l0.7,0.7l-0.6,0.6l2.3,2.3l0.6-0.6l0.7,0.7L84,87l-0.7-0.7L84,85.7
				z"/>
		</g>
		<g class="st2">
			<path class="st1" d="M77.9,89.3L76.1,87l0.9-0.7l1.9,2.3c0.5,0.7,1.1,0.7,1.6,0.3c0.5-0.4,0.7-1.1,0.1-1.8l-1.8-2.3l0.9-0.7
				l3.2,4L82,88.8l-0.4-0.5c0,0.6-0.3,1.1-0.8,1.5C79.9,90.6,78.8,90.5,77.9,89.3z"/>
		</g>
		<g class="st2">
			<path class="st1" d="M73.8,91.5l-0.9,0.6l-1.4-2.3l0.8-0.5l0.2,0.3c0.2-0.4,0.5-0.8,1-1.1c1.2-0.7,2.7-0.6,3.6,0.9
				c0.8,1.4,0.4,3-1,3.8c-0.8,0.5-1.6,0.6-2.3,0.4l0.3-1c0.5,0.1,1,0.1,1.4-0.2c0.9-0.5,1.1-1.5,0.6-2.3c-0.6-0.9-1.5-1-2.2-0.6
				c-0.3,0.2-0.6,0.5-0.7,0.9L73.8,91.5z"/>
		</g>
		<g class="st2">
			<path class="st1" d="M67.7,94.6L66.5,92l1.1-0.5l0.5,1.1l2.2-1l-0.5-1.1l1.1-0.5l1.2,2.6c0.6,1.4,0.1,2.6-1.2,3.2
				C69.5,96.5,68.3,96.1,67.7,94.6z M68.5,93.6l0.3,0.7c0.4,0.8,1,1,1.6,0.7c0.7-0.3,0.9-0.9,0.6-1.7l-0.3-0.7L68.5,93.6z"/>
		</g>
		<g class="st2">
			<path class="st1" d="M64.4,94.9c0.1,0.5-0.2,1-0.7,1.1c-0.5,0.1-1-0.1-1.1-0.7c-0.1-0.5,0.2-1,0.7-1.2
				C63.7,94.1,64.3,94.4,64.4,94.9z"/>
		</g>
		<g class="st2">
			<path class="st1" d="M58.2,98.5l-0.5-3.2l-0.9,0.1l-0.1-1l3-0.5l0.1,1l-0.9,0.1l0.5,3.2l0.9-0.1l0.1,0.9l-3,0.5l-0.1-1L58.2,98.5
				z"/>
		</g>
		<g class="st2">
			<path class="st1" d="M56.2,97.1c0.1,1.5-1.1,2.7-2.7,2.8c-1.6,0.1-2.9-1-3-2.5c-0.1-1.5,1.1-2.7,2.7-2.8
				C54.9,94.5,56.1,95.6,56.2,97.1z M51.7,97.3c0,1,0.8,1.6,1.7,1.6c0.9,0,1.6-0.7,1.5-1.7c0-1-0.8-1.6-1.7-1.6S51.7,96.4,51.7,97.3
				z"/>
		</g>
		<g class="st2">
			<path class="st1" d="M46,98.2c0.4,0.3,0.9,0.5,1.4,0.6l0.3-4.2l1.2,0.1l-0.3,4.2c0.5,0,1-0.2,1.5-0.4l0.3,0.9
				c-0.7,0.4-1.6,0.5-2.5,0.5c-0.9-0.1-1.7-0.3-2.4-0.8L46,98.2z"/>
		</g>
		<g class="st2">
			<path class="st1" d="M42.7,98.1l0.6-3.2l-0.9-0.2l0.2-0.9l2.9,0.5l-0.2,0.9l-0.9-0.2l-0.6,3.2l0.9,0.2l-0.2,0.9l-2.9-0.5l0.2-0.9
				L42.7,98.1z"/>
		</g>
		<g class="st2">
			<path class="st1" d="M36.2,95.2l0.9-2.9l1.2,0.3l-0.8,2.9c-0.2,0.8,0.1,1.3,0.7,1.5c0.7,0.2,1.3-0.1,1.5-0.9l0.8-2.8l1.1,0.3
				l-1.5,5L39,98.3l0.2-0.6c-0.5,0.4-1.1,0.4-1.7,0.2C36.3,97.5,35.8,96.6,36.2,95.2z"/>
		</g>
		<g class="st2">
			<path class="st1" d="M32,93l-1-0.4l1.1-2.4l0.8,0.4l-0.1,0.3c0.4-0.1,0.9,0,1.4,0.2c1.3,0.6,2,1.9,1.3,3.5
				c-0.6,1.5-2.2,2-3.7,1.3c-0.8-0.4-1.4-1-1.6-1.7l1-0.3c0.2,0.5,0.5,0.9,1,1.1c0.9,0.4,1.8,0.1,2.2-0.9c0.4-1,0-1.8-0.8-2.1
				c-0.4-0.2-0.7-0.2-1.1-0.1L32,93z"/>
		</g>
		<g class="st2">
			<path class="st1" d="M25.9,89.8l1.5-2.4l1,0.6l-0.6,1.1l2,1.2l0.6-1.1l1,0.6L30,92.3c-0.8,1.4-2.1,1.6-3.3,0.9
				C25.5,92.4,25.1,91.2,25.9,89.8z M27.3,89.9l-0.4,0.6c-0.5,0.8-0.3,1.4,0.3,1.7c0.6,0.4,1.2,0.2,1.7-0.5l0.4-0.6L27.3,89.9z"/>
		</g>
		<g class="st2">
			<path class="st1" d="M24,87.3c-0.3,0.4-0.9,0.5-1.3,0.1c-0.4-0.3-0.5-0.9-0.1-1.3c0.3-0.4,0.9-0.5,1.3-0.2
				C24.3,86.3,24.4,86.8,24,87.3z"/>
		</g>
		<g class="st2">
			<path class="st1" d="M17.4,84.2l2.3-2.3l-0.6-0.6l0.7-0.7l2.1,2.2l-0.7,0.7l-0.6-0.7L18.2,85l0.6,0.7l-0.7,0.7l-2.1-2.2l0.7-0.7
				L17.4,84.2z"/>
		</g>
		<g class="st2">
			<path class="st1" d="M17.3,81.8c-1.2,0.9-2.9,0.7-3.9-0.6c-1-1.3-0.8-2.9,0.4-3.9s2.9-0.7,3.9,0.6C18.7,79.2,18.5,80.9,17.3,81.8
				z M14.6,78.3c-0.8,0.6-0.9,1.6-0.3,2.3c0.6,0.7,1.5,0.9,2.3,0.3c0.8-0.6,0.9-1.6,0.3-2.3C16.3,77.8,15.4,77.7,14.6,78.3z"/>
		</g>
		<g class="st2">
			<path class="st1" d="M10.7,74.2c0,0.5,0.1,1,0.3,1.5l3.6-2.1l0.6,1l-3.6,2.1c0.3,0.4,0.7,0.7,1.2,1l-0.6,0.8
				c-0.7-0.4-1.4-1-1.8-1.8c-0.4-0.8-0.7-1.6-0.7-2.4L10.7,74.2z"/>
		</g>
		<g class="st2">
			<path class="st1" d="M8.8,71.3l3-1.4l-0.4-0.8l0.9-0.4l1.2,2.7l-0.9,0.4L12.2,71l-3,1.4l0.4,0.8l-0.9,0.4l-1.2-2.7l0.9-0.4
				L8.8,71.3z"/>
		</g>
		<g class="st2">
			<path class="st1" d="M7.5,64.4l2.9-1l0.4,1.1l-2.8,1c-0.8,0.3-1.1,0.8-0.8,1.4c0.2,0.7,0.8,1,1.7,0.7l2.8-0.9l0.4,1.1L7,69.5
				l-0.4-1.1l0.6-0.2c-0.6-0.2-1-0.6-1.2-1.3C5.6,65.8,6.1,64.8,7.5,64.4z"/>
		</g>
		<g class="st2">
			<path class="st1" d="M6.9,59.7l-0.2-1.1l2.6-0.5l0.2,0.9L9.2,59c0.3,0.3,0.6,0.7,0.7,1.3c0.3,1.4-0.4,2.8-2.1,3.1
				c-1.6,0.3-2.9-0.6-3.2-2.3c-0.2-0.9,0-1.7,0.5-2.3l0.8,0.6c-0.3,0.4-0.4,0.9-0.3,1.4c0.2,1,1,1.5,2,1.3c1.1-0.2,1.5-1,1.3-1.8
				c-0.1-0.4-0.3-0.7-0.6-1L6.9,59.7z"/>
		</g>
		<g class="st2">
			<path class="st1" d="M6.1,52.9l2.8-0.2L9,53.9L7.7,54l0.2,2.4l1.2-0.1l0.1,1.2l-2.8,0.2c-1.6,0.1-2.5-0.8-2.6-2.2
				C3.7,54,4.5,53,6.1,52.9z M6.8,54L6,54.1c-0.9,0.1-1.3,0.6-1.2,1.3c0.1,0.7,0.5,1.2,1.4,1.1l0.7-0.1L6.8,54z"/>
		</g>
		<g class="st2">
			<path class="st1" d="M7,49.7c-0.5,0-0.9-0.5-0.9-1c0-0.5,0.5-0.9,1-0.9c0.5,0,0.9,0.5,0.9,1C8,49.4,7.6,49.8,7,49.7z"/>
		</g>
		<g class="st2">
			<path class="st1" d="M5.8,42.6L9,43.3l0.2-0.9l0.9,0.2l-0.6,2.9l-0.9-0.2l0.2-0.9l-3.2-0.7l-0.2,0.9l-0.9-0.2L5,41.6L6,41.7
				L5.8,42.6z"/>
		</g>
		<g class="st2">
			<path class="st1" d="M7.7,41.2c-1.5-0.5-2.2-2-1.7-3.5c0.5-1.6,1.9-2.4,3.4-1.9c1.5,0.5,2.2,2,1.7,3.5
				C10.6,40.8,9.2,41.6,7.7,41.2z M9,36.9c-0.9-0.3-1.8,0.2-2.1,1c-0.3,0.9,0.2,1.7,1.1,2c0.9,0.3,1.8-0.2,2.1-1
				C10.4,38.1,10,37.2,9,36.9z"/>
		</g>
		<g class="st2">
			<path class="st1" d="M10.3,31.3c-0.4,0.3-0.8,0.7-1,1.1l3.8,1.8l-0.5,1.1l-3.8-1.8c-0.1,0.5-0.2,1-0.1,1.5l-1,0
				c-0.1-0.8,0.1-1.7,0.4-2.5c0.4-0.8,0.9-1.5,1.6-2L10.3,31.3z"/>
		</g>
		<g class="st2">
			<path class="st1" d="M11.5,28.2l2.8,1.6l0.5-0.8l0.8,0.5l-1.5,2.6l-0.8-0.5l0.5-0.8l-2.8-1.6L10.4,30l-0.8-0.5l1.5-2.6l0.8,0.5
				L11.5,28.2z"/>
		</g>
		<g class="st2">
			<path class="st1" d="M16.3,23.2l2.4,1.8l-0.7,1l-2.4-1.8c-0.7-0.5-1.3-0.4-1.7,0.1c-0.4,0.6-0.4,1.2,0.4,1.8l2.3,1.7l-0.7,1
				l-4.2-3.1l0.7-0.9l0.5,0.4c-0.2-0.6,0-1.2,0.4-1.7C14.1,22.5,15.2,22.4,16.3,23.2z"/>
		</g>
		<g class="st2">
			<path class="st1" d="M19.8,20l0.8-0.8l1.9,1.8l-0.6,0.7l-0.2-0.2c-0.1,0.5-0.3,0.9-0.7,1.3c-1,1-2.5,1.2-3.7,0.1
				c-1.2-1.1-1.1-2.7,0-3.9c0.6-0.7,1.4-1,2.1-0.9l0,1c-0.5,0-1,0.2-1.3,0.6c-0.7,0.7-0.7,1.7,0.1,2.4c0.8,0.8,1.7,0.6,2.3,0
				c0.3-0.3,0.4-0.6,0.5-1L19.8,20z"/>
		</g>
		<g class="st2">
			<path class="st1" d="M24.9,15.4l1.8,2.2l-0.9,0.8l-0.8-1l-1.8,1.5l0.8,1L23,20.6l-1.8-2.2c-1-1.2-0.8-2.5,0.3-3.4
				C22.7,14.1,23.9,14.2,24.9,15.4z M24.4,16.6l-0.5-0.6c-0.6-0.7-1.2-0.7-1.7-0.3c-0.6,0.5-0.7,1.1-0.1,1.8l0.5,0.6L24.4,16.6z"/>
		</g>
		<g class="st2">
			<path class="st1" d="M28,14.3c-0.3-0.5-0.1-1,0.3-1.3c0.4-0.3,1-0.1,1.3,0.3c0.3,0.5,0.1,1-0.3,1.3C28.9,14.9,28.3,14.8,28,14.3z
				"/>
		</g>
		<g class="st2">
			<path class="st1" d="M33.2,9.2l1.3,3l0.8-0.4l0.4,0.9L33,14l-0.4-0.9l0.8-0.4l-1.3-3l-0.8,0.4l-0.4-0.9L33.7,8L34,8.9L33.2,9.2z"
				/>
		</g>
		<g class="st2">
			<path class="st1" d="M35.4,10c-0.5-1.5,0.3-2.9,1.9-3.4c1.6-0.5,3,0.2,3.5,1.7s-0.4,2.9-1.9,3.4C37.3,12.2,35.8,11.5,35.4,10z
				 M39.6,8.7c-0.3-0.9-1.2-1.4-2-1.1c-0.9,0.3-1.3,1.1-1.1,2.1s1.2,1.4,2,1.1C39.5,10.5,39.9,9.6,39.6,8.7z"/>
		</g>
		<g class="st2">
			<path class="st1" d="M45,6.4c-0.5-0.2-1-0.2-1.5-0.2l0.8,4.1l-1.2,0.2l-0.8-4.1c-0.5,0.2-0.9,0.4-1.3,0.7l-0.6-0.8
				c0.6-0.5,1.4-0.9,2.3-1.1c0.9-0.2,1.7-0.1,2.5,0.2L45,6.4z"/>
		</g>
		<g class="st2">
			<path class="st1" d="M48.2,5.7l0.3,3.2l0.9-0.1l0.1,1l-3,0.2l-0.1-1L47.3,9L47,5.8l-0.9,0.1l-0.1-1l3-0.2l0.1,1L48.2,5.7z"/>
		</g>
		<g class="st2">
			<path class="st1" d="M55.2,6.7l-0.1,3l-1.2,0l0.1-3c0-0.9-0.4-1.3-1.1-1.3c-0.7,0-1.2,0.4-1.2,1.3l-0.1,2.9l-1.2,0l0.1-5.2l1.2,0
				l0,0.6c0.4-0.5,0.9-0.7,1.6-0.7C54.5,4.5,55.2,5.3,55.2,6.7z"/>
		</g>
		<g class="st2">
			<path class="st1" d="M59.8,7.8L60.8,8l-0.4,2.6l-0.9-0.1l0-0.3c-0.4,0.2-0.9,0.3-1.4,0.2c-1.4-0.2-2.5-1.3-2.2-3
				c0.2-1.6,1.6-2.5,3.2-2.3c0.9,0.1,1.6,0.6,2,1.2l-0.9,0.6c-0.3-0.5-0.7-0.7-1.2-0.8c-1-0.2-1.8,0.4-1.9,1.4
				c-0.2,1.1,0.5,1.7,1.3,1.9c0.4,0.1,0.8,0,1.1-0.2L59.8,7.8z"/>
		</g>
		<g class="st2">
			<path class="st1" d="M66.5,9.4l-0.8,2.7l-1.2-0.3l0.3-1.2L62.7,10l-0.3,1.2l-1.1-0.3L62,8.1c0.4-1.5,1.6-2.1,3-1.7
				C66.3,6.8,67,7.9,66.5,9.4z M65.2,9.7L65.4,9c0.2-0.8-0.1-1.4-0.8-1.6c-0.7-0.2-1.3,0.1-1.5,0.9L62.9,9L65.2,9.7z"/>
		</g>
	</g>
</g>
</svg>
