<?xml version="1.0" encoding="utf-8"?>
<!-- Generator: Adobe Illustrator 28.1.0, SVG Export Plug-In . SVG Version: 6.00 Build 0)  -->
<svg version="1.1" id="Layer_1" xmlns="http://www.w3.org/2000/svg" xmlns:xlink="http://www.w3.org/1999/xlink" x="0px" y="0px"
	 viewBox="0 0 103.5 103.5" style="enable-background:new 0 0 103.5 103.5;" xml:space="preserve">
<style type="text/css">
	.st0{fill:#FFFFFF;}
	.st1{enable-background:new    ;}
</style>
<g>
	<path class="st0" d="M84.4,21.7c1.4,4.3-0.9,8.9-5.2,10.4c-4.3,1.4-8.9-0.9-10.4-5.2c-1.4-4.3,0.9-8.9,5.2-10.4l0,0
		C78.3,15.1,83,17.4,84.4,21.7"/>
	<path class="st0" d="M88.8,40.3c-0.9-2.9-2.2-5.6-3.8-8.2c-4.3,4.7-11.6,4.9-16.2,0.6c-4.5-4.1-4.9-11-1.1-15.7
		c-19.6-8.7-42.4,0.2-51.1,19.7s0.2,42.4,19.7,51.1s42.4-0.2,51.1-19.7C91.3,59.3,91.8,49.4,88.8,40.3 M79.3,67.2
		C78,78.4,67.9,86.4,56.7,85.1S37.5,73.6,38.9,62.4c1.3-11.2,11.4-19.1,22.6-17.8C72.6,45.9,80.6,56,79.3,67.2"/>
</g>
<g>
	<g class="st1">
		<path class="st0" d="M93.2,30.2l-2.9,1.6l0.4,0.8L89.9,33l-1.4-2.6l0.8-0.5l0.4,0.8l2.9-1.6l-0.4-0.8l0.8-0.5l1.4,2.6L93.6,31
			L93.2,30.2z"/>
	</g>
	<g class="st1">
		<path class="st0" d="M92.6,32.6c1.4-0.6,2.9,0.1,3.6,1.6c0.6,1.5,0,3.1-1.4,3.6c-1.4,0.6-2.9-0.1-3.6-1.6
			C90.6,34.7,91.2,33.2,92.6,32.6z M94.3,36.7c0.9-0.4,1.3-1.3,0.9-2.1c-0.4-0.9-1.2-1.2-2.2-0.9s-1.3,1.3-0.9,2.1
			C92.5,36.7,93.4,37.1,94.3,36.7z"/>
	</g>
	<g class="st1">
		<path class="st0" d="M97.1,41.8c0.1-0.5,0.2-1,0.1-1.5l-4.1,1.1l-0.3-1.2l4.1-1.1c-0.2-0.5-0.5-0.9-0.9-1.3l0.8-0.6
			c0.6,0.6,1,1.4,1.3,2.2c0.2,0.8,0.2,1.7,0,2.5L97.1,41.8z"/>
	</g>
	<g class="st1">
		<path class="st0" d="M98.2,44.9l-3.2,0.6l0.2,0.9l-0.9,0.2l-0.5-3l0.9-0.2l0.2,0.9l3.2-0.6l-0.2-0.9l0.9-0.2l0.5,3l-0.9,0.2
			L98.2,44.9z"/>
	</g>
	<g class="st1">
		<path class="st0" d="M97.6,51.9l-3,0.2l-0.1-1.2l3-0.2c0.8-0.1,1.2-0.5,1.2-1.2c0-0.7-0.5-1.2-1.4-1.1l-2.9,0.2l-0.1-1.2l5.2-0.3
			l0.1,1.2l-0.6,0c0.5,0.3,0.8,0.9,0.8,1.5C99.8,51,99,51.8,97.6,51.9z"/>
	</g>
	<g class="st1">
		<path class="st0" d="M97.1,56.5L97,57.6l-2.7-0.2l0.1-0.9l0.3,0c-0.3-0.4-0.3-0.9-0.3-1.4c0.1-1.4,1.1-2.6,2.8-2.5
			c1.6,0.1,2.7,1.4,2.6,3c-0.1,0.9-0.4,1.6-1,2.1L98,57c0.4-0.4,0.6-0.8,0.7-1.3c0.1-1-0.6-1.7-1.6-1.8c-1.1-0.1-1.7,0.6-1.7,1.5
			c0,0.4,0.1,0.8,0.3,1.1L97.1,56.5z"/>
	</g>
	<g class="st1">
		<path class="st0" d="M96.1,63.3l-2.8-0.5l0.2-1.2l1.2,0.2l0.4-2.3L94,59.3l0.2-1.2l2.8,0.5c1.5,0.3,2.2,1.4,1.9,2.8
			C98.6,62.9,97.6,63.6,96.1,63.3z M95.7,62l0.7,0.1c0.9,0.2,1.4-0.2,1.5-0.9c0.1-0.7-0.2-1.2-1.1-1.4l-0.7-0.1L95.7,62z"/>
	</g>
	<g class="st1">
		<path class="st0" d="M94.4,66.2c0.5,0.2,0.7,0.7,0.6,1.2c-0.2,0.5-0.7,0.7-1.2,0.6s-0.7-0.7-0.6-1.2C93.3,66.3,93.9,66,94.4,66.2z
			"/>
	</g>
	<g class="st1">
		<path class="st0" d="M93.8,73.4L90.9,72l-0.4,0.8l-0.9-0.4l1.3-2.7l0.9,0.4l-0.4,0.8l2.9,1.4l0.4-0.8l0.9,0.4l-1.3,2.7l-0.9-0.4
			L93.8,73.4z"/>
	</g>
	<g class="st1">
		<path class="st0" d="M91.5,74.3c1.3,0.8,1.6,2.5,0.7,3.8c-0.9,1.4-2.5,1.8-3.8,0.9c-1.3-0.8-1.6-2.5-0.7-3.8
			C88.6,73.9,90.2,73.5,91.5,74.3z M89.1,78.1c0.8,0.5,1.8,0.3,2.3-0.5c0.5-0.8,0.3-1.7-0.5-2.3s-1.8-0.3-2.3,0.5
			C88.1,76.6,88.3,77.5,89.1,78.1z"/>
	</g>
	<g class="st1">
		<path class="st0" d="M86.6,83.1c0.5-0.2,0.9-0.4,1.3-0.8l-3.3-2.7l0.8-0.9l3.3,2.7c0.3-0.4,0.4-0.9,0.5-1.4l0.9,0.3
			c-0.1,0.8-0.5,1.6-1,2.3c-0.6,0.7-1.3,1.2-2,1.5L86.6,83.1z"/>
	</g>
	<g class="st1">
		<path class="st0" d="M84.5,85.8l-2.3-2.3l-0.6,0.6l-0.7-0.7l2.1-2.1l0.7,0.7l-0.6,0.6l2.3,2.3l0.6-0.6l0.7,0.7l-2.1,2.1l-0.7-0.7
			L84.5,85.8z"/>
	</g>
	<g class="st1">
		<path class="st0" d="M78.5,89.5l-1.9-2.4l0.9-0.7l1.9,2.3c0.5,0.7,1.1,0.7,1.6,0.3c0.5-0.4,0.7-1.1,0.1-1.8l-1.8-2.3l0.9-0.7
			l3.2,4l-0.9,0.7l-0.4-0.5c0,0.6-0.3,1.1-0.8,1.5C80.5,90.8,79.4,90.6,78.5,89.5z"/>
	</g>
	<g class="st1">
		<path class="st0" d="M74.3,91.6l-0.9,0.6L72,89.9l0.8-0.5l0.2,0.3c0.2-0.4,0.5-0.8,1-1.1c1.2-0.7,2.7-0.6,3.6,0.9
			c0.8,1.4,0.4,3-1,3.8c-0.8,0.5-1.6,0.6-2.3,0.4l0.3-1c0.5,0.1,1,0.1,1.4-0.2c0.9-0.5,1.1-1.5,0.6-2.3c-0.6-0.9-1.5-1-2.2-0.6
			c-0.3,0.2-0.6,0.5-0.7,0.9L74.3,91.6z"/>
	</g>
	<g class="st1">
		<path class="st0" d="M68.2,94.7l-1.2-2.6l1.1-0.5l0.5,1.1l2.2-1l-0.5-1.1l1.1-0.5l1.2,2.6c0.6,1.4,0.1,2.6-1.2,3.2
			C70.1,96.6,68.9,96.2,68.2,94.7z M69.1,93.7l0.3,0.7c0.4,0.8,1,1,1.6,0.7c0.7-0.3,0.9-0.9,0.6-1.7l-0.3-0.7L69.1,93.7z"/>
	</g>
	<g class="st1">
		<path class="st0" d="M65,95.1c0.1,0.5-0.2,1-0.7,1.1c-0.5,0.1-1-0.1-1.1-0.7c-0.1-0.5,0.2-1,0.7-1.2C64.3,94.3,64.8,94.5,65,95.1z
			"/>
	</g>
	<g class="st1">
		<path class="st0" d="M58.8,98.6l-0.5-3.2l-0.9,0.1l-0.1-0.9l3-0.5l0.2,1l-0.9,0.1l0.5,3.2l0.9-0.1l0.1,1l-3,0.5l-0.1-1L58.8,98.6z
			"/>
	</g>
	<g class="st1">
		<path class="st0" d="M56.8,97.3c0.1,1.5-1.1,2.7-2.7,2.8c-1.6,0.1-2.9-1-3-2.5c-0.1-1.5,1.1-2.7,2.7-2.8
			C55.4,94.6,56.7,95.7,56.8,97.3z M52.3,97.5c0,1,0.8,1.6,1.7,1.6c0.9,0,1.6-0.7,1.5-1.7c0-1-0.8-1.6-1.7-1.6
			C52.9,95.8,52.3,96.5,52.3,97.5z"/>
	</g>
	<g class="st1">
		<path class="st0" d="M46.6,98.3c0.4,0.3,0.9,0.5,1.4,0.6l0.3-4.2l1.2,0.1L49.2,99c0.5,0,1-0.2,1.5-0.4l0.3,0.9
			c-0.7,0.4-1.6,0.5-2.5,0.5c-0.9-0.1-1.7-0.3-2.4-0.8L46.6,98.3z"/>
	</g>
	<g class="st1">
		<path class="st0" d="M43.3,98.2l0.6-3.2L43,94.9l0.2-0.9l2.9,0.5l-0.2,0.9l-0.9-0.2l-0.6,3.2l0.9,0.2l-0.2,0.9L42.2,99l0.2-0.9
			L43.3,98.2z"/>
	</g>
	<g class="st1">
		<path class="st0" d="M36.8,95.3l0.9-2.9l1.1,0.3l-0.8,2.9c-0.2,0.8,0.1,1.3,0.7,1.5c0.7,0.2,1.3-0.1,1.5-0.9l0.8-2.8l1.1,0.3
			l-1.5,5l-1.1-0.3l0.2-0.6c-0.5,0.4-1.1,0.4-1.7,0.2C36.8,97.7,36.3,96.7,36.8,95.3z"/>
	</g>
	<g class="st1">
		<path class="st0" d="M32.6,93.2l-1-0.4l1.1-2.4l0.8,0.4l-0.1,0.3c0.4-0.1,0.9,0,1.4,0.2c1.3,0.6,2,1.9,1.3,3.5
			c-0.6,1.5-2.2,2-3.7,1.3c-0.8-0.4-1.4-1-1.6-1.7l1-0.3c0.2,0.5,0.5,0.9,1,1.1c0.9,0.4,1.8,0.1,2.2-0.9c0.4-1,0-1.8-0.8-2.1
			c-0.4-0.2-0.7-0.2-1.1-0.1L32.6,93.2z"/>
	</g>
	<g class="st1">
		<path class="st0" d="M26.5,90l1.5-2.4l1,0.6l-0.6,1.1l2,1.2l0.6-1.1l1,0.6l-1.5,2.4c-0.8,1.4-2.1,1.6-3.3,0.9
			C26.1,92.5,25.7,91.3,26.5,90z M27.9,90l-0.4,0.6c-0.5,0.8-0.3,1.4,0.3,1.7c0.6,0.4,1.2,0.2,1.7-0.5l0.4-0.6L27.9,90z"/>
	</g>
	<g class="st1">
		<path class="st0" d="M24.6,87.4c-0.3,0.4-0.9,0.5-1.3,0.1c-0.4-0.3-0.5-0.9-0.1-1.3c0.3-0.4,0.9-0.5,1.3-0.2
			C24.8,86.4,24.9,87,24.6,87.4z"/>
	</g>
	<g class="st1">
		<path class="st0" d="M18,84.3l2.3-2.3l-0.6-0.6l0.7-0.7l2.1,2.2l-0.7,0.7l-0.6-0.7l-2.3,2.3l0.6,0.7l-0.7,0.7l-2.1-2.2l0.7-0.7
			L18,84.3z"/>
	</g>
	<g class="st1">
		<path class="st0" d="M17.9,81.9c-1.2,0.9-2.9,0.7-3.9-0.6c-1-1.3-0.8-2.9,0.4-3.9c1.2-0.9,2.9-0.7,3.9,0.6
			C19.2,79.3,19.1,81,17.9,81.9z M15.1,78.4c-0.8,0.6-0.9,1.6-0.3,2.3c0.6,0.7,1.5,0.9,2.3,0.3c0.8-0.6,0.9-1.6,0.3-2.3
			C16.9,77.9,15.9,77.8,15.1,78.4z"/>
	</g>
	<g class="st1">
		<path class="st0" d="M11.2,74.3c0,0.5,0.1,1,0.3,1.5l3.6-2.1l0.6,1l-3.6,2.1c0.3,0.4,0.7,0.7,1.2,1l-0.6,0.8
			c-0.7-0.4-1.3-1-1.8-1.8c-0.4-0.8-0.7-1.6-0.7-2.4L11.2,74.3z"/>
	</g>
	<g class="st1">
		<path class="st0" d="M9.3,71.4l3-1.4l-0.4-0.8l0.9-0.4l1.2,2.7L13.2,72l-0.4-0.8l-3,1.4l0.4,0.8l-0.9,0.4L8.1,71L9,70.6L9.3,71.4z
			"/>
	</g>
	<g class="st1">
		<path class="st0" d="M8.1,64.5l2.9-1l0.4,1.1l-2.8,1c-0.8,0.3-1.1,0.8-0.8,1.4c0.2,0.7,0.8,1,1.7,0.7l2.8-0.9l0.4,1.1l-4.9,1.7
			l-0.4-1.1l0.6-0.2c-0.6-0.2-1-0.6-1.2-1.3C6.2,65.9,6.7,65,8.1,64.5z"/>
	</g>
	<g class="st1">
		<path class="st0" d="M7.5,59.8l-0.2-1.1l2.6-0.5l0.2,0.9l-0.3,0.1c0.3,0.3,0.6,0.7,0.7,1.3c0.3,1.4-0.4,2.8-2.1,3.1
			c-1.6,0.3-2.9-0.6-3.2-2.3c-0.2-0.9,0-1.7,0.5-2.3l0.8,0.6C6.1,60,6,60.5,6.1,61c0.2,1,1,1.5,2,1.3c1.1-0.2,1.5-1,1.3-1.8
			c-0.1-0.4-0.3-0.7-0.6-1L7.5,59.8z"/>
	</g>
	<g class="st1">
		<path class="st0" d="M6.6,53l2.8-0.2L9.5,54l-1.2,0.1l0.2,2.4l1.2-0.1l0.1,1.2l-2.8,0.2c-1.6,0.1-2.5-0.8-2.6-2.2
			C4.3,54.1,5,53.1,6.6,53z M7.3,54.2l-0.7,0.1c-0.9,0.1-1.3,0.6-1.2,1.3c0.1,0.7,0.5,1.2,1.4,1.1l0.7-0.1L7.3,54.2z"/>
	</g>
	<g class="st1">
		<path class="st0" d="M7.6,49.9c-0.5,0-0.9-0.5-0.9-1c0-0.5,0.5-0.9,1-0.9c0.5,0,0.9,0.5,0.9,1C8.5,49.5,8.1,49.9,7.6,49.9z"/>
	</g>
	<g class="st1">
		<path class="st0" d="M6.4,42.8l3.2,0.7l0.2-0.9l0.9,0.2l-0.6,2.9l-0.9-0.2l0.2-0.9l-3.2-0.7l-0.2,0.9L5,44.6l0.6-2.9l0.9,0.2
			L6.4,42.8z"/>
	</g>
	<g class="st1">
		<path class="st0" d="M8.3,41.3c-1.5-0.5-2.2-2-1.7-3.5c0.5-1.6,1.9-2.4,3.4-1.9c1.5,0.5,2.2,2,1.7,3.5
			C11.2,40.9,9.7,41.7,8.3,41.3z M9.6,37c-0.9-0.3-1.8,0.2-2.1,1c-0.3,0.9,0.2,1.7,1.1,2c0.9,0.3,1.8-0.2,2.1-1
			C11,38.2,10.5,37.3,9.6,37z"/>
	</g>
	<g class="st1">
		<path class="st0" d="M10.8,31.5c-0.4,0.3-0.8,0.7-1,1.1l3.8,1.8l-0.5,1.1l-3.8-1.8c-0.1,0.5-0.2,1-0.1,1.5l-1,0
			c-0.1-0.8,0.1-1.7,0.4-2.5c0.4-0.8,0.9-1.5,1.6-2L10.8,31.5z"/>
	</g>
	<g class="st1">
		<path class="st0" d="M12.1,28.3l2.8,1.6l0.5-0.8l0.8,0.5l-1.5,2.6l-0.8-0.5l0.5-0.8l-2.8-1.6L11,30.2l-0.8-0.5l1.5-2.6l0.8,0.5
			L12.1,28.3z"/>
	</g>
	<g class="st1">
		<path class="st0" d="M16.9,23.3l2.4,1.8l-0.7,1l-2.4-1.8c-0.7-0.5-1.3-0.4-1.7,0.1c-0.4,0.6-0.4,1.2,0.4,1.8l2.3,1.7l-0.7,1
			l-4.2-3.1l0.7-0.9l0.5,0.4c-0.2-0.6,0-1.2,0.4-1.7C14.7,22.6,15.7,22.5,16.9,23.3z"/>
	</g>
	<g class="st1">
		<path class="st0" d="M20.3,20.1l0.8-0.8l1.9,1.8l-0.6,0.7l-0.2-0.2c-0.1,0.5-0.3,0.9-0.7,1.3c-1,1-2.5,1.2-3.7,0.1
			c-1.2-1.1-1.1-2.7,0-3.9c0.6-0.7,1.4-1,2.1-0.9l0,1c-0.5,0-1,0.2-1.3,0.6c-0.7,0.7-0.7,1.7,0.1,2.4c0.8,0.8,1.7,0.6,2.3,0
			c0.3-0.3,0.4-0.6,0.5-1L20.3,20.1z"/>
	</g>
	<g class="st1">
		<path class="st0" d="M25.5,15.5l1.8,2.2l-0.9,0.8l-0.8-1L23.7,19l0.8,1l-0.9,0.7l-1.8-2.2c-1-1.2-0.8-2.5,0.3-3.4
			C23.2,14.2,24.5,14.3,25.5,15.5z M25,16.8l-0.5-0.6c-0.6-0.7-1.2-0.7-1.7-0.3c-0.6,0.5-0.7,1.1-0.1,1.8l0.5,0.6L25,16.8z"/>
	</g>
	<g class="st1">
		<path class="st0" d="M28.6,14.5c-0.3-0.5-0.1-1,0.3-1.3c0.4-0.3,1-0.1,1.3,0.3s0.1,1-0.3,1.3C29.4,15.1,28.9,14.9,28.6,14.5z"/>
	</g>
	<g class="st1">
		<path class="st0" d="M33.8,9.4l1.3,3l0.8-0.4l0.4,0.9l-2.8,1.2l-0.4-0.9l0.8-0.4l-1.3-3l-0.8,0.4l-0.4-0.9l2.8-1.2L34.6,9
			L33.8,9.4z"/>
	</g>
	<g class="st1">
		<path class="st0" d="M35.9,10.2c-0.5-1.5,0.3-2.9,1.9-3.4c1.6-0.5,3,0.2,3.5,1.7c0.5,1.5-0.4,2.9-1.9,3.4
			C37.9,12.3,36.4,11.6,35.9,10.2z M40.2,8.8c-0.3-0.9-1.2-1.4-2-1.1c-0.9,0.3-1.3,1.1-1.1,2.1s1.2,1.4,2,1.1
			C40,10.6,40.5,9.8,40.2,8.8z"/>
	</g>
	<g class="st1">
		<path class="st0" d="M45.5,6.6c-0.5-0.2-1-0.2-1.5-0.2l0.8,4.1l-1.2,0.2l-0.8-4.1c-0.5,0.2-0.9,0.4-1.3,0.7L41,6.5
			c0.6-0.6,1.4-0.9,2.3-1.1c0.9-0.2,1.7-0.1,2.5,0.2L45.5,6.6z"/>
	</g>
	<g class="st1">
		<path class="st0" d="M48.8,5.8L49,9.1L49.9,9l0.1,1l-3,0.2l-0.1-1l0.9-0.1l-0.3-3.2L46.7,6l-0.1-1l3-0.2l0.1,1L48.8,5.8z"/>
	</g>
	<g class="st1">
		<path class="st0" d="M55.7,6.9l-0.1,3l-1.2,0l0.1-3c0-0.9-0.4-1.3-1.1-1.3c-0.7,0-1.2,0.4-1.2,1.3l-0.1,2.9l-1.2,0l0.1-5.2l1.2,0
			l0,0.6c0.4-0.5,0.9-0.7,1.6-0.7C55.1,4.6,55.8,5.4,55.7,6.9z"/>
	</g>
	<g class="st1">
		<path class="st0" d="M60.3,7.9l1.1,0.2L61,10.7l-0.9-0.1l0-0.3c-0.4,0.2-0.9,0.3-1.4,0.2c-1.4-0.2-2.5-1.3-2.2-3
			c0.2-1.6,1.6-2.5,3.2-2.3c0.9,0.1,1.6,0.6,2,1.2L60.9,7c-0.3-0.5-0.7-0.7-1.2-0.8c-1-0.2-1.8,0.4-1.9,1.4
			c-0.2,1.1,0.5,1.7,1.3,1.9c0.4,0.1,0.8,0,1.1-0.2L60.3,7.9z"/>
	</g>
	<g class="st1">
		<path class="st0" d="M67.1,9.5l-0.8,2.7l-1.2-0.3l0.3-1.2l-2.3-0.7l-0.3,1.2l-1.1-0.3l0.8-2.7c0.4-1.5,1.6-2.1,3-1.7
			C66.8,6.9,67.5,8,67.1,9.5z M65.8,9.8L66,9.1c0.2-0.8-0.1-1.4-0.8-1.6c-0.7-0.2-1.3,0.1-1.5,0.9l-0.2,0.7L65.8,9.8z"/>
	</g>
</g>
</svg>
