<?xml version="1.0" encoding="utf-8"?>
<!-- Generator: Adobe Illustrator 28.1.0, SVG Export Plug-In . SVG Version: 6.00 Build 0)  -->
<svg version="1.1" id="Layer_1" xmlns="http://www.w3.org/2000/svg" xmlns:xlink="http://www.w3.org/1999/xlink" x="0px" y="0px"
	 viewBox="0 0 85 85" style="enable-background:new 0 0 85 85;" xml:space="preserve">
<style type="text/css">
	.st0{fill:#FFFFFF;}
	.st1{enable-background:new    ;}
	.st2{fill:#216BFF;}
</style>
<rect class="st0" width="85" height="85"/>
<g class="st1">
	<path class="st2" d="M8.2,70.7v7.4h2v2.2H3.4v-2.2h2v-7.4h-2v-2.2h6.8v2.2H8.2z"/>
	<path class="st2" d="M11.5,74.4c0-3.5,2.7-6,6.4-6s6.4,2.6,6.4,6.1s-2.7,6-6.4,6C14.1,80.5,11.4,77.9,11.5,74.4z M21.5,74.4
		c0-2.2-1.6-3.7-3.7-3.8c-2.1,0-3.7,1.5-3.7,3.7s1.6,3.7,3.7,3.8C19.9,78.2,21.5,76.7,21.5,74.4z"/>
	<path class="st2" d="M34.7,71.9c-1-0.6-2.1-1-3.2-1.1v9.5h-2.7v-9.5c-1.2,0.2-2.2,0.5-3.2,1.1l-0.9-2c1.6-1,3.5-1.4,5.5-1.4
		s3.9,0.5,5.5,1.5L34.7,71.9z"/>
	<path class="st2" d="M40.8,70.8v7.4h2v2.2H36v-2.2h2v-7.4h-2v-2.2h6.8v2.2H40.8z"/>
	<path class="st2" d="M55.5,73.5v6.9h-2.7v-6.8c0-1.9-1-2.8-2.5-2.8c-1.6,0-2.7,0.9-2.7,3v6.6h-2.7V68.7h2.6v1.4
		c0.8-1.1,2-1.6,3.6-1.6C53.9,68.5,55.5,70.2,55.5,73.5z"/>
	<path class="st2" d="M66.1,74.3h2.5v6h-2v-0.7c-0.8,0.6-1.9,0.9-3.1,0.9c-3.2,0-5.9-2.1-5.9-6c0-3.6,2.7-6.1,6.4-6.1
		c2.1,0,3.8,0.7,4.9,2L67,72.1c-0.9-0.9-1.8-1.3-3-1.3c-2.3,0-3.8,1.5-3.8,3.8c0,2.5,1.6,3.7,3.5,3.7c0.9,0,1.7-0.2,2.4-0.8V74.3z"
		/>
	<path class="st2" d="M81.7,74v6.4H79v-2.8h-5.3v2.8H71V74c0-3.6,2.2-5.5,5.4-5.5S81.7,70.5,81.7,74z M79,75.4v-1.7
		c0-2-1.1-2.9-2.7-2.9s-2.7,0.9-2.7,2.9v1.7H79z"/>
</g>
<path class="st2" d="M68.4,23.7c-0.7-2.1-1.6-4-2.7-5.8c-0.9,1-2.1,1.7-3.4,2.2c-4.3,1.4-8.8-0.9-10.2-5.2c-0.9-2.7-0.2-5.6,1.5-7.7
	c-6-2.7-12.9-3.2-19.6-1c-14.5,4.7-22.3,20.1-17.6,34.5s20.1,22.2,34.5,17.5S73,38.1,68.4,23.7z M61.6,42.7
	c-0.9,7.9-8.1,13.5-16,12.6s-13.5-8.1-12.6-16s8.1-13.5,16-12.6C56.9,27.7,62.6,34.8,61.6,42.7z"/>
<circle class="st2" cx="59.8" cy="12.4" r="5.8"/>
</svg>
